<svg  xmlns="http://www.w3.org/2000/svg">
  <defs>
    <symbol id="camera" viewBox="0 0 30 32">
      <path d="M15.158 12.982c-2.519 0-4.561 2.042-4.561 4.561s2.042 4.561 4.561 4.561c2.519 0 4.561-2.042 4.561-4.561s-2.042-4.561-4.561-4.561z"></path>
      <path d="M11.298 0.351c-1.938 0-3.509 1.571-3.509 3.509v0.251c0 0.637-0.516 1.153-1.153 1.153-3.627 0-6.566 2.94-6.566 6.566v6.471c0 2.25-0 4.015 0.134 5.424 0.137 1.437 0.42 2.613 1.055 3.65 0.665 1.086 1.578 1.999 2.664 2.664 1.037 0.635 2.213 0.919 3.65 1.055 1.409 0.134 3.173 0.134 5.424 0.134h4.321c2.25 0 4.014 0 5.424-0.134 1.437-0.137 2.613-0.42 3.65-1.055 1.086-0.665 1.999-1.578 2.664-2.664 0.635-1.037 0.919-2.213 1.055-3.65 0.134-1.409 0.134-3.174 0.134-5.424v-6.471c0-3.627-2.94-6.566-6.566-6.566-0.637 0-1.153-0.516-1.153-1.153v-0.251c0-1.938-1.571-3.509-3.509-3.509h-7.719zM8.491 17.544c0-3.682 2.985-6.667 6.667-6.667s6.667 2.985 6.667 6.667c0 3.682-2.985 6.667-6.667 6.667s-6.667-2.985-6.667-6.667zM23.579 13.333c-0.775 0-1.404-0.628-1.404-1.404s0.628-1.403 1.404-1.403c0.775 0 1.403 0.628 1.403 1.403s-0.628 1.404-1.403 1.404z"></path>
    </symbol>
    <symbol id="trash-can" viewBox="0 0 32 32">
      <path d="M14 6h4c0-0.53-0.211-1.039-0.586-1.414s-0.884-0.586-1.414-0.586c-0.53 0-1.039 0.211-1.414 0.586s-0.586 0.884-0.586 1.414zM12 6c0-1.061 0.421-2.078 1.172-2.828s1.768-1.172 2.828-1.172c1.061 0 2.078 0.421 2.828 1.172s1.172 1.768 1.172 2.828h8c0.265 0 0.52 0.105 0.707 0.293s0.293 0.442 0.293 0.707-0.105 0.52-0.293 0.707c-0.187 0.188-0.442 0.293-0.707 0.293h-1.128l-2.41 17.676c-0.163 1.198-0.755 2.296-1.666 3.091s-2.079 1.233-3.288 1.233h-7.016c-1.209 0-2.377-0.438-3.288-1.233s-1.503-1.893-1.666-3.091l-2.41-17.676h-1.128c-0.265 0-0.52-0.105-0.707-0.293s-0.293-0.442-0.293-0.707c0-0.265 0.105-0.52 0.293-0.707s0.442-0.293 0.707-0.293h8zM14 13c0-0.265-0.105-0.52-0.293-0.707s-0.442-0.293-0.707-0.293-0.52 0.105-0.707 0.293c-0.188 0.188-0.293 0.442-0.293 0.707v10c0 0.265 0.105 0.52 0.293 0.707s0.442 0.293 0.707 0.293 0.52-0.105 0.707-0.293c0.188-0.187 0.293-0.442 0.293-0.707v-10zM19 12c-0.265 0-0.52 0.105-0.707 0.293s-0.293 0.442-0.293 0.707v10c0 0.265 0.105 0.52 0.293 0.707s0.442 0.293 0.707 0.293 0.52-0.105 0.707-0.293c0.188-0.187 0.293-0.442 0.293-0.707v-10c0-0.265-0.105-0.52-0.293-0.707s-0.442-0.293-0.707-0.293z"></path>
    </symbol>
  </defs>
</svg>
